<svg width="800" height="600" xmlns="http://www.w3.org/2000/svg" xmlns:xlink="http://www.w3.org/1999/xlink">

 <g>
  <title>Layer 1</title>
  <g>
   <!-- Font Awesome Free 5.15.4 by @fontawesome - https://fontawesome.com License - https://fontawesome.com/license/free (Icons: CC BY 4.0, Fonts: SIL OFL 1.1, Code: MIT License) -->
   <defs transform="translate(25, -21) translate(33, -6) translate(-14, 4) translate(-281, 3) translate(146, 49) translate(152) translate(0, 50.1963)">
    <symbol xmlns="http://www.w3.org/2000/svg" width="780pt" viewBox="0 0 780 308" id="svg_8" height="308pt">
     <g id="svg_18"/>
     <g id="svg_17"/>
     <g id="svg_16">
      <path fill="#000" d="m576.77,183.76c3.21,-4.89 11.2,-4.6 14.43,0.11c6.53,8.58 12.76,17.37 19.37,25.89c6.4,-8.68 12.81,-17.35 19.28,-25.97c3.21,-4.64 11.11,-4.83 14.35,-0.11c4.51,6.22 8.71,12.66 13.17,18.91c2.53,-1.17 5.29,-2.99 8.19,-1.94c4.63,1.5 9.07,6.66 6.78,11.69c-2.22,3.65 -5.64,6.37 -8.62,9.37c-3.82,3.96 -11.11,3.35 -14.25,-1.16c-4.28,-6.03 -8.19,-12.33 -12.39,-18.42c-6.5,8.46 -12.93,16.96 -19.41,25.42c-3.61,5.33 -12.32,4.55 -15.22,-1.11c-6.13,-8.15 -12.36,-16.22 -18.54,-24.33c-4.17,6.11 -8.15,12.35 -12.39,18.41c-2.22,3.45 -6.79,4.36 -10.56,3.44c-3.28,-0.99 -5.36,-3.95 -7.78,-6.16c-2.58,-2.59 -5.87,-5.66 -4.94,-9.72c1,-3.62 4.15,-6.69 7.82,-7.57c2.71,-0.76 5.17,1.04 7.51,2.14c4.45,-6.26 8.7,-12.66 13.2,-18.89z"/>
     </g>
     <g id="svg_15"/>
    </symbol>
    <symbol xmlns="http://www.w3.org/2000/svg" width="780pt" viewBox="0 0 780 308" id="svg_5" height="308pt">
     <g id="svg_14"/>
     <g id="svg_13"/>
     <g id="svg_12">
      <path fill="#000" d="m309.1,119.84c-3.12,-5.24 1.77,-11.37 6.96,-12.62c3.38,-0.59 6.57,1.45 8.8,3.82c3.03,3.2 5.94,6.52 9.02,9.69c3.9,-4 7.13,-8.72 11.53,-12.22c5.31,-3.93 12.59,0.89 14,6.54c0.53,3.08 -1.56,5.75 -3.63,7.76c-3.26,3.12 -6.58,6.19 -9.83,9.33c3.98,4.28 8.61,7.98 12.23,12.58c3.24,4.19 0.39,10.52 -4.24,12.22c-3.54,1.38 -8.03,0.66 -10.54,-2.33c-3.25,-3.47 -6.31,-7.11 -9.53,-10.6c-3.45,3.54 -6.72,7.26 -10.15,10.82c-2.41,2.65 -6.45,3.39 -9.78,2.27c-3.55,-0.95 -5.85,-4.59 -6.09,-8.12c0.16,-2.61 1.55,-4.95 3.41,-6.71c3.56,-3.39 7.21,-6.67 10.88,-9.95c-4.11,-4.41 -9.42,-7.65 -13.04,-12.48z"/>
      <path fill="#000" d="m387.85,107.82c3.1,-1.74 6.92,-0.36 9.28,1.99c3.47,3.48 6.59,7.3 9.92,10.93c3.22,-3.36 6.31,-6.83 9.51,-10.2c2.27,-2.43 5.81,-4.38 9.17,-3.14c3.67,1.37 6.9,4.55 7.5,8.54c-0.08,2.39 -1.39,4.51 -3.11,6.08c-3.62,3.44 -7.39,6.71 -11.04,10.12c3.8,3.8 7.88,7.31 11.59,11.19c2.29,2.31 3.34,6.01 1.67,8.98c-2.35,5.82 -11.03,7.11 -15.16,2.52c-3.45,-3.55 -6.7,-7.27 -10.11,-10.84c-3.33,3.54 -6.38,7.33 -9.76,10.82c-3.95,4.48 -12.45,3.48 -14.86,-2.14c-1.84,-3.14 -0.81,-7.14 1.64,-9.63c3.59,-3.78 7.58,-7.15 11.17,-10.93c-4.07,-4.08 -8.89,-7.47 -12.4,-12.07c-3.21,-4.56 0.64,-10.2 4.99,-12.22z"/>
     </g>
     <g id="svg_11"/>
    </symbol>
   </defs>
   <g class="layer">
    <title>Layer 1</title>
    <path id="svg_10" fill="#000000" d="m226.9,476.59627c0,2 -2.3,3.6 -5.2,3.6c-3.3,0.3 -5.6,-1.3 -5.6,-3.6c0,-2 2.3,-3.6 5.2,-3.6c3,-0.3 5.6,1.3 5.6,3.6zm-31.1,-4.5c-0.7,2 1.3,4.3 4.3,4.9c2.6,1 5.6,0 6.2,-2s-1.3,-4.3 -4.3,-5.2c-2.6,-0.7 -5.5,0.3 -6.2,2.3zm44.2,-1.7c-2.9,0.7 -4.9,2.6 -4.6,4.9c0.3,2 2.9,3.3 5.9,2.6c2.9,-0.7 4.9,-2.6 4.6,-4.6c-0.3,-1.9 -3,-3.2 -5.9,-2.9zm65.8,-383.2c-138.7,0 -244.8,105.3 -244.8,244c0,110.9 69.8,205.8 169.5,239.2c12.8,2.3 17.3,-5.6 17.3,-12.1c0,-6.2 -0.3,-40.4 -0.3,-61.4c0,0 -70,15 -84.7,-29.8c0,0 -11.4,-29.1 -27.8,-36.6c0,0 -22.9,-15.7 1.6,-15.4c0,0 24.9,2 38.6,25.8c21.9,38.6 58.6,27.5 72.9,20.9c2.3,-16 8.8,-27.1 16,-33.7c-55.9,-6.2 -112.3,-14.3 -112.3,-110.5c0,-27.5 7.6,-41.3 23.6,-58.9c-2.6,-6.5 -11.1,-33.3 2.6,-67.9c20.9,-6.5 69,27 69,27c20,-5.6 41.5,-8.5 62.8,-8.5s42.8,2.9 62.8,8.5c0,0 48.1,-33.6 69,-27c13.7,34.7 5.2,61.4 2.6,67.9c16,17.7 25.8,31.5 25.8,58.9c0,96.5 -58.9,104.2 -114.8,110.5c9.2,7.9 17,22.9 17,46.4c0,33.7 -0.3,75.4 -0.3,83.6c0,6.5 4.6,14.4 17.3,12.1c100,-33.2 167.8,-128.1 167.8,-239c0,-138.7 -112.5,-244 -251.2,-244zm-147.6,344.9c-1.3,1 -1,3.3 0.7,5.2c1.6,1.6 3.9,2.3 5.2,1c1.3,-1 1,-3.3 -0.7,-5.2c-1.6,-1.6 -3.9,-2.3 -5.2,-1zm-10.8,-8.1c-0.7,1.3 0.3,2.9 2.3,3.9c1.6,1 3.6,0.7 4.3,-0.7c0.7,-1.3 -0.3,-2.9 -2.3,-3.9c-2,-0.6 -3.6,-0.3 -4.3,0.7zm32.4,35.6c-1.6,1.3 -1,4.3 1.3,6.2c2.3,2.3 5.2,2.6 6.5,1c1.3,-1.3 0.7,-4.3 -1.3,-6.2c-2.2,-2.3 -5.2,-2.6 -6.5,-1zm-11.4,-14.7c-1.6,1 -1.6,3.6 0,5.9c1.6,2.3 4.3,3.3 5.6,2.3c1.6,-1.3 1.6,-3.9 0,-6.2c-1.4,-2.3 -4,-3.3 -5.6,-2z"/>
    <g id="svg_9"/>
    <use y="125.55769" xlink:href="#svg_8" x="-288.94494" transform="matrix(0.76578, 0, 0, 0.76578, -92.8054, 69.4028)" id="svg_7"/>
    <g id="svg_6"/>
    <use href="#svg_5" y="164.45803" xlink:href="#svg_5" x="101.40164" transform="matrix(1.05941, 0, 0, 1.05941, -320.655, -71.271)" id="svg_4"/>
    <g id="svg_3"/>
    <g id="svg_2"/>
    <g id="svg_1"/>
   </g>
  </g>
  <g>
   <g id="svg_21">
    
   </g>
   <g id="svg_20">
    <path d="m560.28,61.31c11.76,-11.73 28.05,-19.1 44.73,-19.18c10.7,0.42 21.77,1.43 31.42,6.45c2.82,1.97 4.41,7.51 0.2,8.92c-8.09,2.82 -16.98,-0.1 -25.02,3.04c-6.27,2.1 -10.86,7.18 -15.46,11.67c-7.3,8.41 -8.11,20.82 -4.96,31.1c-9.74,9.4 -19.31,18.98 -29.03,28.4c-0.76,-0.23 -2.29,-0.68 -3.06,-0.91c-5.38,-1.97 -10.87,1.46 -14.73,5.03c2.89,2.91 3.85,7.47 1.92,11.17c-1.28,4.11 -5.03,6.5 -7.78,9.56c-2.67,3 -6.34,5.66 -10.56,5.36c-3.66,-0.02 -6.57,-2.48 -9.06,-4.89c-8.72,-8.72 -17.43,-17.44 -26.16,-26.16c-2.46,-2.49 -3.85,-6.3 -2.64,-9.71c0.98,-5.54 6.2,-8.46 9.62,-12.42c3.83,-4.43 11.11,-5.29 15.55,-1.28c8.66,-8.42 16.92,-17.27 25.24,-26.03c6.78,-6.53 13.18,-13.42 19.78,-20.12z" fill="#66757f"/>
   </g>
   <g id="svg_19">
    <path d="m562.16,131.71c9.72,-9.42 19.29,-19 29.03,-28.4c41.62,41.51 83.15,83.13 124.73,124.69c4.52,4.37 6.92,10.74 6.52,17c-0.28,7.2 -4.98,13.88 -11.47,16.89c-7.03,3.19 -15.59,2.41 -22.08,-1.71c-3.32,-2.33 -5.93,-5.49 -8.85,-8.27c-40.28,-40.4 -80.8,-80.58 -120.94,-121.11c0.77,0.23 2.3,0.68 3.06,0.91z" fill="#f4900c"/>
   </g>
  </g>
 </g>
</svg>